<?xml version="1.0" encoding="utf-8"?>
<!-- Generator: Adobe Illustrator 25.0.0, SVG Export Plug-In . SVG Version: 6.00 Build 0)  -->
<svg version="1.1" id="Capa_1" xmlns="http://www.w3.org/2000/svg" xmlns:xlink="http://www.w3.org/1999/xlink" x="0px" y="0px"
	 viewBox="0 0 1200 1200" enable-background="new 0 0 1200 1200" xml:space="preserve">
<path fill="#4EC723" d="M219.005,810.366c-47.293-193.679-4.055-452.193,467.169-639.523C768.283,138.494,833.481,97.853,880.224,50
	c-8.385,123.408-442.994,666.501-583.899,879.985C258.568,900.577,232.54,860.375,219.005,810.366z M984.493,577.131
	c36.339-209.041-19.877-379.903-94.264-517.361c10.035,181.753-411.664,683.063-536.51,902.93
	C620.456,1058.795,939.114,845.346,984.493,577.131z M343.812,963.03c93.705-167.309,322.309-450.318,430.839-639.324
	c62.086-103.958,96.838-181.987,105.11-236.347c-40.153,107.91-208.006,337.768-371.237,561.285
	c-77.564,106.21-150.826,206.529-207.466,289.763c-54.281,109.755-43.96,187.286-43.494,190.537
	c5.432,31.92,52.151,25.803,48.619-6.601C301.532,1090.857,316.415,1014.906,343.812,963.03z"/>
</svg>
